<svg xmlns="http://www.w3.org/2000/svg" width="11.936" height="11.929" viewBox="0 0 11.936 11.929">
  <path id="Vector" d="M1.571,11.929a1.6,1.6,0,0,1-1.129-.443A1.608,1.608,0,0,1,.02,10.093L.328,7.941A2.478,2.478,0,0,1,.949,6.7L6.581,1.067a2.688,2.688,0,0,1,4.288,0,2.984,2.984,0,0,1,1.058,2.365,3.179,3.179,0,0,1-1.058,1.915L5.237,10.979a2.478,2.478,0,0,1-1.243.622l-2.151.307A1.192,1.192,0,0,1,1.571,11.929ZM7.338,1.824,1.707,7.456a1.454,1.454,0,0,0-.322.636l-.307,2.151a.561.561,0,0,0,.121.486.561.561,0,0,0,.486.121l2.151-.307a1.417,1.417,0,0,0,.636-.322L10.1,4.59a2.193,2.193,0,0,0,.743-1.265A1.984,1.984,0,0,0,10.1,1.817C8.961.674,8.175,1,7.338,1.824Z" fill="#292d32"/>
</svg>
