<svg xmlns="http://www.w3.org/2000/svg" width="24" height="24" viewBox="0 0 24 24">
  <g id="vuesax_outline_sms" data-name="vuesax/outline/sms" transform="translate(-556 -252)">
    <g id="sms" transform="translate(556 252)">
      <path id="Vector" d="M15.292,17.125H5.583C2.039,17.125,0,15.181,0,11.8V5.323C0,1.944,2.039,0,5.583,0h9.709c3.544,0,5.583,1.944,5.583,5.323V11.8C20.875,15.181,18.836,17.125,15.292,17.125ZM5.583,1.389c-2.777,0-4.126,1.287-4.126,3.934V11.8c0,2.647,1.35,3.934,4.126,3.934h9.709c2.777,0,4.126-1.287,4.126-3.934V5.323c0-2.647-1.35-3.934-4.126-3.934Z" transform="translate(1.563 3.438)" fill="#757c7e"/>
      <path id="Vector-2" data-name="Vector" d="M7.191,5.782a4.647,4.647,0,0,1-2.925-.987L.353,1.67A.934.934,0,0,1,1.516.207L5.428,3.332a2.983,2.983,0,0,0,3.512,0L12.853.207a.923.923,0,0,1,1.313.15.923.923,0,0,1-.15,1.313L10.1,4.795A4.587,4.587,0,0,1,7.191,5.782Z" transform="translate(4.811 7.752)" fill="#757c7e"/>
      <path id="Vector-3" data-name="Vector" d="M0,0H24V24H0Z" fill="none" opacity="0"/>
    </g>
  </g>
</svg>
