<?xml version="1.0" standalone="no"?>
<!DOCTYPE svg PUBLIC "-//W3C//DTD SVG 20010904//EN"
 "http://www.w3.org/TR/2001/REC-SVG-20010904/DTD/svg10.dtd">
<svg version="1.0" xmlns="http://www.w3.org/2000/svg"
 width="512.000000pt" height="512.000000pt" viewBox="0 0 512.000000 512.000000"
 preserveAspectRatio="xMidYMid meet">

<g transform="translate(0.000000,512.000000) scale(0.100000,-0.100000)"
fill="#000000" stroke="none">
<path d="M2175 4963 c-296 -23 -554 -145 -749 -353 -354 -377 -405 -945 -124
-1378 l41 -64 -296 -296 -296 -296 -134 131 c-143 140 -165 153 -243 139 -47
-9 -111 -73 -120 -120 -14 -79 -2 -102 139 -244 l131 -132 -171 -173 c-95 -94
-177 -185 -183 -200 -27 -73 0 -147 69 -194 37 -25 91 -30 138 -13 15 6 106
88 200 183 l173 172 127 -127 c71 -70 141 -132 156 -138 121 -44 236 58 212
188 -6 30 -31 61 -138 170 l-131 132 296 297 297 297 54 -36 c453 -301 1059
-232 1433 164 273 288 372 682 269 1067 -101 378 -410 686 -788 786 -82 22
-263 47 -307 43 -8 -1 -33 -3 -55 -5z m188 -334 c221 -34 423 -166 547 -356
89 -136 125 -259 125 -433 0 -225 -74 -406 -230 -563 -153 -155 -339 -232
-565 -232 -174 0 -298 36 -432 124 -499 327 -485 1050 26 1360 151 91 347 128
529 100z"/>
<path d="M3935 3346 c-94 -41 -124 -169 -58 -247 46 -55 69 -59 315 -59 l223
0 -432 -432 -431 -431 -64 41 c-562 365 -1315 158 -1615 -443 -216 -431 -131
-947 212 -1290 301 -302 736 -405 1145 -273 90 29 242 108 321 167 138 105
279 281 349 435 156 349 125 755 -82 1074 l-41 64 429 429 429 429 5 -234 c5
-217 7 -237 26 -262 39 -53 71 -69 134 -69 63 0 95 16 134 69 21 27 21 38 21
486 0 448 0 459 -21 486 -11 15 -33 37 -48 48 -27 20 -40 21 -474 23 -356 2
-453 0 -477 -11z m-865 -1289 c100 -28 168 -57 243 -107 426 -278 490 -876
132 -1235 -359 -358 -957 -294 -1235 132 -89 136 -125 259 -125 433 0 174 36
297 124 432 119 182 304 308 521 354 80 17 262 12 340 -9z"/>
</g>
</svg>
