<?xml version="1.0" standalone="no"?>
<!DOCTYPE svg PUBLIC "-//W3C//DTD SVG 20010904//EN"
 "http://www.w3.org/TR/2001/REC-SVG-20010904/DTD/svg10.dtd">
<svg version="1.0" xmlns="http://www.w3.org/2000/svg"
 width="512.000000pt" height="512.000000pt" viewBox="0 0 512.000000 512.000000"
 preserveAspectRatio="xMidYMid meet">

<g transform="translate(0.000000,512.000000) scale(0.100000,-0.100000)"
fill="#000000" stroke="none">
<path d="M626 4309 c-62 -15 -153 -68 -197 -116 -22 -24 -55 -74 -72 -111
l-32 -67 -3 -1287 -2 -1288 -136 0 c-131 0 -136 -1 -161 -26 -25 -25 -25 -26
-22 -168 4 -141 5 -143 41 -218 45 -91 103 -147 196 -191 l67 -32 2256 0 2255
0 76 37 c91 45 147 103 191 196 30 63 32 75 35 209 4 141 4 142 -21 167 -25
25 -30 26 -161 26 l-136 0 -2 1288 -3 1287 -32 67 c-44 93 -100 151 -191 196
l-76 37 -1915 2 c-1134 0 -1932 -3 -1955 -8z m3848 -161 c55 -16 138 -99 154
-154 9 -32 12 -340 12 -1298 l0 -1256 -2080 0 -2080 0 0 1256 c0 958 3 1266
12 1298 15 51 99 137 148 153 53 17 3777 17 3834 1z m-2554 -2884 c0 -77 88
-189 166 -212 30 -9 164 -12 476 -12 501 0 499 0 571 80 40 44 67 103 67 144
0 15 72 16 880 16 l880 0 0 -56 c0 -31 -5 -75 -12 -98 -16 -55 -99 -138 -154
-154 -60 -18 -4408 -18 -4468 0 -55 16 -138 99 -154 154 -7 23 -12 67 -12 98
l0 56 880 0 c808 0 880 -1 880 -16z m1120 1 c0 -9 -11 -27 -25 -40 l-24 -25
-431 0 -431 0 -24 25 c-14 13 -25 31 -25 40 0 13 54 15 480 15 426 0 480 -2
480 -15z"/>
<path d="M2545 3806 c-27 -7 -369 -131 -760 -275 -476 -175 -716 -269 -727
-282 -16 -19 -18 -44 -18 -204 l0 -183 -30 -12 c-42 -17 -104 -90 -118 -138
-7 -22 -12 -90 -12 -151 0 -105 1 -113 25 -136 24 -25 26 -25 215 -25 189 0
191 0 215 25 24 23 25 31 25 136 0 61 -5 129 -12 151 -14 48 -76 121 -118 138
l-30 12 0 110 c0 100 2 110 17 106 10 -3 307 -112 661 -242 353 -131 670 -242
702 -248 44 -9 76 -9 120 0 94 17 1501 538 1523 563 22 27 22 71 0 98 -12 14
-248 105 -728 282 -390 144 -735 268 -765 275 -67 17 -119 16 -185 0z m765
-377 c335 -123 610 -226 610 -229 0 -3 -276 -106 -613 -230 -522 -192 -620
-225 -667 -225 -47 0 -144 33 -662 224 -335 123 -608 227 -608 231 0 5 747
284 1170 437 45 16 80 22 112 20 30 -3 280 -89 658 -228z m-2135 -734 c21 -20
25 -34 25 -80 l0 -55 -80 0 -80 0 0 55 c0 67 29 105 80 105 19 0 40 -9 55 -25z"/>
<path d="M1705 2695 l-25 -24 0 -348 c0 -297 2 -352 15 -370 29 -41 354 -132
600 -169 164 -25 521 -25 690 -1 239 35 571 129 600 170 13 18 15 76 15 370
l0 348 -25 24 c-29 30 -74 32 -106 6 l-24 -19 -5 -313 -5 -312 -55 -19 c-92
-32 -287 -77 -409 -95 -159 -23 -503 -23 -662 0 -122 18 -317 63 -409 95 l-55
19 -5 312 -5 313 -24 19 c-32 26 -77 24 -106 -6z"/>
</g>
</svg>
