<?xml version="1.0" standalone="no"?>
<!DOCTYPE svg PUBLIC "-//W3C//DTD SVG 20010904//EN"
 "http://www.w3.org/TR/2001/REC-SVG-20010904/DTD/svg10.dtd">
<svg version="1.0" xmlns="http://www.w3.org/2000/svg"
 width="512.000000pt" height="512.000000pt" viewBox="0 0 512.000000 512.000000"
 preserveAspectRatio="xMidYMid meet">

<g transform="translate(0.000000,512.000000) scale(0.100000,-0.100000)"
fill="#000000" stroke="none">
<path d="M4215 4415 c-31 -11 -392 -367 -1776 -1752 -1556 -1557 -1738 -1742
-1743 -1775 -21 -118 84 -217 196 -188 37 10 79 48 305 272 l261 261 59 -36
c455 -274 1021 -358 1537 -228 540 137 1024 508 1399 1071 82 123 140 239 164
330 24 90 24 291 0 380 -56 209 -297 552 -582 829 l-116 114 245 246 c176 177
246 254 251 276 4 17 8 35 10 41 2 7 -1 30 -7 53 -11 44 -74 111 -106 111 -9
0 -26 2 -37 5 -11 3 -38 -2 -60 -10z m-381 -1087 c199 -198 404 -469 457 -606
33 -82 33 -242 0 -324 -51 -130 -273 -428 -451 -605 -177 -177 -327 -286 -535
-388 -246 -122 -417 -164 -695 -172 -161 -5 -202 -2 -315 17 -71 12 -184 40
-250 61 -114 38 -345 143 -345 157 0 4 77 84 170 177 l170 170 33 -19 c141
-82 247 -119 390 -136 440 -52 861 240 973 678 34 130 36 297 5 426 -20 85
-90 247 -124 291 -15 19 -7 29 176 213 105 105 195 192 200 192 4 0 68 -60
141 -132z m-724 -576 c137 -366 -146 -773 -539 -776 -47 0 -111 6 -141 13 -48
12 -137 47 -150 58 -2 2 173 181 390 398 439 439 401 413 440 307z"/>
<path d="M2285 4195 c-583 -83 -1095 -409 -1509 -962 -115 -153 -205 -298
-240 -386 -73 -184 -73 -391 0 -574 59 -149 309 -506 388 -554 19 -12 49 -19
81 -19 90 0 155 67 155 160 0 52 -4 59 -97 178 -101 128 -208 293 -235 362
-18 44 -22 75 -22 160 0 129 15 172 112 320 351 537 797 871 1307 980 73 16
150 23 285 27 205 5 310 -6 502 -54 96 -24 111 -25 149 -14 135 41 155 227 30
290 -40 21 -160 51 -296 77 -125 23 -475 28 -610 9z"/>
<path d="M2365 3444 c-283 -61 -533 -269 -640 -533 -43 -105 -67 -225 -55
-270 28 -104 133 -151 229 -102 50 26 66 52 91 152 30 119 72 192 160 280 84
85 172 134 293 163 85 21 113 38 139 89 37 74 8 176 -60 211 -45 23 -84 25
-157 10z"/>
</g>
</svg>
