<svg id="vuesax_bold_layer" data-name="vuesax/bold/layer" xmlns="http://www.w3.org/2000/svg" width="36.001" height="36" viewBox="0 0 36.001 36">
  <g id="layer">
    <path id="Vector" d="M24.66,4.343,15.87.428a6.214,6.214,0,0,0-4.53,0L2.55,4.343C.33,5.333,0,6.683,0,7.4s.33,2.07,2.55,3.06l8.79,3.915a5.753,5.753,0,0,0,2.265.435,5.753,5.753,0,0,0,2.265-.435l8.79-3.915c2.22-.99,2.55-2.34,2.55-3.06S26.9,5.333,24.66,4.343Z" transform="translate(4.395 2.993)" fill="#2a3637"/>
    <path id="Vector-2" data-name="Vector" d="M14.52,10.185a4.243,4.243,0,0,1-1.665-.345L2.745,5.34A4.944,4.944,0,0,1,0,1.11a1.11,1.11,0,0,1,2.22,0A2.723,2.723,0,0,0,3.645,3.3l10.11,4.5a1.9,1.9,0,0,0,1.515,0L25.38,3.3a2.7,2.7,0,0,0,1.425-2.19,1.11,1.11,0,0,1,2.22,0A4.963,4.963,0,0,1,26.28,5.34L16.17,9.84A4.117,4.117,0,0,1,14.52,10.185Z" transform="translate(3.48 15.375)" fill="#2a3637"/>
    <path id="Vector-3" data-name="Vector" d="M14.52,10.185a4.243,4.243,0,0,1-1.665-.345L2.745,5.34A4.627,4.627,0,0,1,0,1.11a1.11,1.11,0,0,1,2.22,0A2.4,2.4,0,0,0,3.645,3.3l10.11,4.5a1.9,1.9,0,0,0,1.515,0L25.38,3.3a2.407,2.407,0,0,0,1.425-2.19,1.11,1.11,0,0,1,2.22,0A4.643,4.643,0,0,1,26.28,5.34L16.17,9.84A4.117,4.117,0,0,1,14.52,10.185Z" transform="translate(3.48 22.815)" fill="#2a3637"/>
    <path id="Vector-4" data-name="Vector" d="M0,0H36V36H0Z" fill="none" opacity="0"/>
  </g>
</svg>
