<svg xmlns="http://www.w3.org/2000/svg" width="24" height="24" viewBox="0 0 24 24">
  <g id="vuesax_outline_lock" data-name="vuesax/outline/lock" transform="translate(-108 -316)">
    <g id="lock">
      <path id="Vector" d="M12.75,9.5A.755.755,0,0,1,12,8.75v-2C12,3.6,11.11,1.5,6.75,1.5S1.5,3.6,1.5,6.75v2a.755.755,0,0,1-.75.75A.755.755,0,0,1,0,8.75v-2C0,3.85.7,0,6.75,0S13.5,3.85,13.5,6.75v2A.755.755,0,0,1,12.75,9.5Z" transform="translate(113.25 317.25)" fill="#757c7e"/>
      <path id="Vector-2" data-name="Vector" d="M15.75,13.5h-10C1.34,13.5,0,12.16,0,7.75v-2C0,1.34,1.34,0,5.75,0h10c4.41,0,5.75,1.34,5.75,5.75v2C21.5,12.16,20.16,13.5,15.75,13.5Zm-10-12c-3.58,0-4.25.68-4.25,4.25v2c0,3.57.67,4.25,4.25,4.25h10C19.33,12,20,11.32,20,7.75v-2c0-3.57-.67-4.25-4.25-4.25Z" transform="translate(109.25 325.25)" fill="#757c7e"/>
      <path id="Vector-3" data-name="Vector" d="M1,2a1,1,0,0,1-.38-.08,1.032,1.032,0,0,1-.33-.21A1.033,1.033,0,0,1,0,1,1,1,0,0,1,.08.619,1.032,1.032,0,0,1,.29.289,1.032,1.032,0,0,1,.62.079a1,1,0,0,1,1.09.21,1.155,1.155,0,0,1,.21.33A1,1,0,0,1,2,1a1.052,1.052,0,0,1-.29.71A1.052,1.052,0,0,1,1,2Z" transform="translate(115 331.001)" fill="#757c7e"/>
      <path id="Vector-4" data-name="Vector" d="M1,2a1.052,1.052,0,0,1-.71-.29A1.033,1.033,0,0,1,0,1,.839.839,0,0,1,.08.621,1.155,1.155,0,0,1,.29.291a1,1,0,0,1,.9-.27.6.6,0,0,1,.19.06.757.757,0,0,1,.18.09,1.576,1.576,0,0,1,.15.12,1.155,1.155,0,0,1,.21.33A1,1,0,0,1,2,1a1.033,1.033,0,0,1-.29.71l-.15.12a.757.757,0,0,1-.18.09.6.6,0,0,1-.19.06A1.225,1.225,0,0,1,1,2Z" transform="translate(119 330.999)" fill="#757c7e"/>
      <path id="Vector-5" data-name="Vector" d="M1,2a1.033,1.033,0,0,1-.71-.29,1.155,1.155,0,0,1-.21-.33A1,1,0,0,1,0,1,1.052,1.052,0,0,1,.29.291L.44.171A.757.757,0,0,1,.62.081.636.636,0,0,1,.8.021a1.018,1.018,0,0,1,.91.27A1.033,1.033,0,0,1,2,1a1,1,0,0,1-.08.38,1.032,1.032,0,0,1-.21.33A1.052,1.052,0,0,1,1,2Z" transform="translate(123 330.999)" fill="#757c7e"/>
      <path id="Vector-6" data-name="Vector" d="M0,0H24V24H0Z" transform="translate(108 316)" fill="none" opacity="0"/>
    </g>
  </g>
</svg>
