<?xml version="1.0" standalone="no"?>
<!DOCTYPE svg PUBLIC "-//W3C//DTD SVG 20010904//EN"
 "http://www.w3.org/TR/2001/REC-SVG-20010904/DTD/svg10.dtd">
<svg version="1.0" xmlns="http://www.w3.org/2000/svg"
 width="512.000000pt" height="512.000000pt" viewBox="0 0 512.000000 512.000000"
 preserveAspectRatio="xMidYMid meet">

<g transform="translate(0.000000,512.000000) scale(0.100000,-0.100000)"
fill="#000000" stroke="none">
<path d="M2405 4466 c-144 -29 -264 -84 -376 -174 -345 -273 -422 -764 -180
-1135 75 -114 199 -224 322 -286 142 -71 233 -93 384 -94 234 0 422 74 587
231 135 129 218 278 253 451 23 112 16 294 -15 401 -48 166 -165 340 -298 441
-80 61 -223 131 -312 154 -90 22 -277 28 -365 11z"/>
<path d="M2370 2340 c-627 -49 -1137 -317 -1271 -669 -30 -79 -37 -227 -14
-307 69 -238 301 -447 648 -581 116 -44 321 -96 472 -119 166 -25 542 -26 705
-1 425 65 738 202 950 416 141 142 196 272 188 440 -6 117 -41 211 -118 313
-186 247 -577 432 -1040 493 -139 18 -389 25 -520 15z"/>
</g>
</svg>
