<?xml version="1.0" standalone="no"?>
<!DOCTYPE svg PUBLIC "-//W3C//DTD SVG 20010904//EN"
 "http://www.w3.org/TR/2001/REC-SVG-20010904/DTD/svg10.dtd">
<svg version="1.0" xmlns="http://www.w3.org/2000/svg"
 width="512.000000pt" height="512.000000pt" viewBox="0 0 512.000000 512.000000"
 preserveAspectRatio="xMidYMid meet">

<g transform="translate(0.000000,512.000000) scale(0.100000,-0.100000)"
fill="#000000" stroke="none">
<path d="M2349 4834 c-442 -80 -810 -394 -948 -810 -50 -150 -64 -235 -64
-394 0 -112 5 -169 22 -250 106 -505 512 -889 1021 -966 442 -66 889 118 1161
479 79 105 172 296 203 420 113 438 -10 878 -333 1195 -170 168 -401 284 -648
327 -105 18 -311 18 -414 -1z m384 -318 c218 -42 434 -181 563 -363 127 -177
188 -411 164 -622 -27 -237 -147 -458 -330 -608 -80 -66 -239 -146 -345 -175
-115 -31 -336 -30 -450 1 -89 24 -221 84 -291 131 -114 79 -232 216 -297 345
-63 126 -103 328 -92 459 20 219 103 411 244 560 133 140 293 230 481 270 86
19 260 20 353 2z"/>
<path d="M1610 2270 c-303 -64 -558 -265 -695 -545 -66 -133 -88 -218 -116
-440 -33 -260 -19 -393 56 -552 91 -194 233 -329 428 -409 139 -56 116 -55
1312 -51 1234 3 1134 -3 1302 79 153 74 279 202 359 363 85 173 99 299 65 570
-28 222 -50 307 -116 440 -138 284 -394 483 -700 546 -84 17 -149 19 -950 18
-792 0 -867 -2 -945 -19z m1908 -332 c114 -42 180 -85 268 -172 136 -137 180
-239 214 -503 33 -246 19 -344 -63 -465 -50 -73 -141 -146 -224 -180 l-58 -23
-1075 -3 c-1057 -2 -1076 -2 -1142 18 -134 41 -259 157 -308 287 -12 32 -24
92 -27 133 -6 93 29 372 58 461 61 187 213 352 392 426 125 52 112 51 1032 50
l860 -2 73 -27z"/>
</g>
</svg>
